<svg xmlns="http://www.w3.org/2000/svg" version="1.1" xmlns:xlink="http://www.w3.org/1999/xlink" xmlns:svgjs="http://svgjs.dev/svgjs" width="1500" height="1500" viewBox="0 0 1500 1500"><rect width="1500" height="1500" fill="#000000"></rect><g transform="matrix(0.6666666666666666,0,0,0.6666666666666666,249.38678682200202,635.7671114959791)"><svg viewBox="0 0 396 90" data-background-color="#444444" preserveAspectRatio="xMidYMid meet" height="340" width="1500" xmlns="http://www.w3.org/2000/svg" xmlns:xlink="http://www.w3.org/1999/xlink"><g id="tight-bounds" transform="matrix(1,0,0,1,0.24283241848718262,0.3571763177729963)"><svg viewBox="0 0 395.52 89.285647364454" height="89.285647364454" width="395.52"><g><svg viewBox="0 0 537.7126155037097 121.38455443791075" height="89.285647364454" width="395.52"><g transform="matrix(1,0,0,1,142.1926155037097,16.77601295053615)"><svg viewBox="0 0 395.52 87.83252853683845" height="87.83252853683845" width="395.52"><g id="textblocktransform"><svg viewBox="0 0 395.52 87.83252853683845" height="87.83252853683845" width="395.52" id="textblock"><g><svg viewBox="0 0 395.52 87.83252853683845" height="87.83252853683845" width="395.52"><g transform="matrix(1,0,0,1,0,0)"><svg width="395.52" viewBox="1.25 -31.5 143.98000000000002 32.1" height="87.83252853683845" data-palette-color="#ffffff"><g class="wordmark-text-0" data-fill-palette-color="primary" id="text-0"><path d="M9.55 0L1.25 0 1.25-29.55 15.55-29.55 15.55-24 9.55-24 9.55-18.25 15.05-18.25 15.05-12 9.55-12 9.55 0ZM5.05-15L5.25-2.75 5.5-2.75 5.7-14.9 12.25-14.95 12.25-15.05 5.7-15.1 5.5-26.6 13.5-26.65 13.5-26.75 5.25-26.8 5.05-15ZM25.95 0.6L25.95 0.6Q23 0.6 21.07-0.08 19.15-0.75 18.22-2.68 17.3-4.6 17.3-8.3L17.3-8.3 17.3-18.65Q17.3-22.35 19.55-23.75 21.8-25.15 25.95-25.15L25.95-25.15Q30.1-25.15 32.35-23.75 34.6-22.35 34.6-18.65L34.6-18.65 34.6-8.35Q34.6-4.65 33.67-2.7 32.75-0.75 30.85-0.08 28.95 0.6 25.95 0.6ZM24.65-1.4L24.65-1.4 24.65-1.5Q23.15-1.6 22.3-2.8 21.45-4 21.5-6.25L21.5-6.25 21.65-12.25 21.5-19.15Q21.45-20.65 22.05-21.7 22.65-22.75 24.45-22.75L24.45-22.75 24.45-22.85Q22.55-22.85 21.85-21.78 21.15-20.7 21.1-19.15L21.1-19.15 20.9-12.25 21.1-6.1Q21.2-3.75 22.17-2.63 23.15-1.5 24.65-1.4ZM27.2-1.5L27.2-1.4Q28.7-1.5 29.7-2.63 30.7-3.75 30.75-6.1L30.75-6.1 30.95-12.25 30.75-19.15Q30.7-20.7 30-21.78 29.3-22.85 27.4-22.85L27.4-22.85 27.4-22.75Q29.2-22.75 29.8-21.7 30.4-20.65 30.35-19.15L30.35-19.15 30.2-12.25 30.35-6.25Q30.45-4 29.57-2.8 28.7-1.6 27.2-1.5L27.2-1.5ZM25.95-3.4L25.95-3.4Q26.35-3.4 26.57-3.73 26.8-4.05 26.8-4.9L26.8-4.9 26.8-19.65Q26.8-20.5 26.57-20.83 26.35-21.15 25.95-21.15L25.95-21.15Q25.55-21.15 25.32-20.83 25.1-20.5 25.1-19.65L25.1-19.65 25.1-4.9Q25.1-4.05 25.32-3.73 25.55-3.4 25.95-3.4ZM45.24 0.6L45.24 0.6Q42.3 0.6 40.37-0.08 38.45-0.75 37.52-2.68 36.59-4.6 36.59-8.3L36.59-8.3 36.59-18.65Q36.59-22.35 38.84-23.75 41.09-25.15 45.24-25.15L45.24-25.15Q49.39-25.15 51.64-23.75 53.89-22.35 53.89-18.65L53.89-18.65 53.89-8.35Q53.89-4.65 52.97-2.7 52.05-0.75 50.14-0.08 48.24 0.6 45.24 0.6ZM43.95-1.4L43.95-1.4 43.95-1.5Q42.45-1.6 41.59-2.8 40.74-4 40.8-6.25L40.8-6.25 40.95-12.25 40.8-19.15Q40.74-20.65 41.34-21.7 41.95-22.75 43.74-22.75L43.74-22.75 43.74-22.85Q41.84-22.85 41.14-21.78 40.45-20.7 40.39-19.15L40.39-19.15 40.2-12.25 40.39-6.1Q40.49-3.75 41.47-2.63 42.45-1.5 43.95-1.4ZM46.49-1.5L46.49-1.4Q47.99-1.5 48.99-2.63 49.99-3.75 50.05-6.1L50.05-6.1 50.24-12.25 50.05-19.15Q49.99-20.7 49.3-21.78 48.59-22.85 46.7-22.85L46.7-22.85 46.7-22.75Q48.49-22.75 49.09-21.7 49.7-20.65 49.64-19.15L49.64-19.15 49.49-12.25 49.64-6.25Q49.74-4 48.87-2.8 47.99-1.6 46.49-1.5L46.49-1.5ZM45.24-3.4L45.24-3.4Q45.64-3.4 45.87-3.73 46.09-4.05 46.09-4.9L46.09-4.9 46.09-19.65Q46.09-20.5 45.87-20.83 45.64-21.15 45.24-21.15L45.24-21.15Q44.84-21.15 44.62-20.83 44.39-20.5 44.39-19.65L44.39-19.65 44.39-4.9Q44.39-4.05 44.62-3.73 44.84-3.4 45.24-3.4ZM62.69 0.35L62.69 0.35Q60.39 0.35 58.89-0.25 57.39-0.85 56.64-2.58 55.89-4.3 55.89-7.7L55.89-7.7 55.89-19.55Q55.89-21.7 56.69-22.88 57.49-24.05 58.69-24.53 59.89-25 61.14-25L61.14-25Q63.14-25 64.04-24.35 64.94-23.7 65.39-23L65.39-23 65.39-31.5 73.19-31.5 73.19 0 67.94 0 67.14-2.35Q66.64-1.55 65.64-0.6 64.64 0.35 62.69 0.35ZM68.99-16.65L69.24-2.35 69.44-2.35 69.64-16.65 69.39-29.55 69.19-29.55 68.99-16.65ZM64.74-1.9L64.74-1.9 64.74-2Q64.39-1.85 64.07-1.8 63.74-1.75 63.39-1.75L63.39-1.75Q61.99-1.75 61.02-2.98 60.04-4.2 60.09-6.25L60.09-6.25 60.24-12.25 60.09-19.15Q60.04-20.55 60.74-21.5 61.44-22.45 62.69-22.45L62.69-22.45Q62.99-22.45 63.32-22.38 63.64-22.3 63.99-22.2L63.99-22.2 63.99-22.3Q63.59-22.45 63.22-22.5 62.84-22.55 62.54-22.55L62.54-22.55Q61.14-22.55 60.44-21.58 59.74-20.6 59.69-19.15L59.69-19.15 59.49-12.25 59.69-6.1Q59.79-3.95 60.79-2.78 61.79-1.6 63.24-1.6L63.24-1.6Q63.99-1.6 64.74-1.9ZM64.54-4L64.54-4Q64.94-4 65.17-4.33 65.39-4.65 65.39-5.5L65.39-5.5 65.39-20.25 65.14-20.3Q64.99-20.35 64.84-20.38 64.69-20.4 64.54-20.4L64.54-20.4Q64.14-20.4 63.92-20.08 63.69-19.75 63.69-18.9L63.69-18.9 63.69-5.5Q63.69-4.65 63.92-4.33 64.14-4 64.54-4Z" fill="#ffffff" data-fill-palette-color="primary"></path><path d="M88.89 0L81.94 0 81.94-29.55 92.04-29.55 94.19-14.45 96.34-29.55 106.44-29.55 106.44 0 99.49 0 99.49-20.6 96.84 0 91.54 0 88.89-20.6 88.89 0ZM85.14-15L85.34-2.35 85.54-2.35 85.79-15 85.59-27.35 85.39-27.35 85.14-15ZM102.69-15L102.89-2.35 103.09-2.35 103.34-15 103.14-27.35 102.94-27.35 102.69-15ZM94.19-2.35L94.19-2.35 94.89-5.95Q95.04-6.75 95.21-7.68 95.39-8.6 95.59-9.6L95.59-9.6 96.39-13.9Q96.79-16.2 97.19-18.48 97.59-20.75 97.94-22.6L97.94-22.6 98.69-26.7 98.59-26.7 95.89-13.95 94.19-3.05 93.64-6.5Q93.39-8.05 93.06-9.98 92.74-11.9 92.39-13.9L92.39-13.9Q91.99-16.15 91.56-18.43 91.14-20.7 90.74-22.55L90.74-22.55 89.84-26.75 89.74-26.75 90.44-22.6Q90.74-20.75 91.11-18.45 91.49-16.15 91.89-13.85L91.89-13.85Q92.24-11.7 92.64-9.68 93.04-7.65 93.39-6.05L93.39-6.05Q93.69-4.8 93.94-3.7 94.19-2.6 94.19-2.35ZM113.29 0.35L113.29 0.35Q112.24 0.35 111.09 0.05 109.94-0.25 109.16-1.28 108.39-2.3 108.39-4.45L108.39-4.45 108.39-8.5Q108.39-10.6 109.39-11.78 110.39-12.95 111.94-13.6 113.49-14.25 115.19-14.85L115.19-14.85Q116.74-15.35 117.19-16.07 117.64-16.8 117.64-18.25L117.64-18.25 117.64-19.85Q117.64-20.4 117.49-20.78 117.34-21.15 116.79-21.15L116.79-21.15Q116.24-21.15 116.09-20.7L116.09-20.7Q115.94-20.2 115.94-19.2L115.94-19.2 115.94-16.05 108.89-16.05 108.89-19.3Q108.89-22.3 110.61-23.78 112.34-25.25 116.84-25.25L116.84-25.25Q120.04-25.25 121.94-24.83 123.84-24.4 124.71-23.13 125.59-21.85 125.59-19.3L125.59-19.3 125.59 0 117.79 0 117.79-2.45Q117.49-1.5 116.46-0.58 115.44 0.35 113.29 0.35ZM111.99-19.75L111.99-18.3 112.39-18.3 112.39-19.75Q112.39-21.3 113.66-22.38 114.94-23.45 116.69-23.45L116.69-23.45 116.69-23.55Q114.94-23.55 113.46-22.5 111.99-21.45 111.99-19.75L111.99-19.75ZM121.19-12L121.39-2.35 121.59-2.35 121.84-12 121.64-21.45 121.44-21.45 121.19-12ZM114.19-1.95L114.19-1.95 114.19-2.05Q113.24-2.05 112.81-2.85 112.39-3.65 112.39-5.55L112.39-5.55 112.39-9.05Q112.39-10.75 113.36-11.6 114.34-12.45 115.19-12.75L115.19-12.75 115.19-12.85Q114.19-12.5 113.04-11.58 111.89-10.65 111.89-9.05L111.89-9.05 111.89-5.55Q111.89-3.55 112.54-2.75 113.19-1.95 114.19-1.95ZM116.79-4L116.79-4Q117.44-4 117.54-4.67 117.64-5.35 117.64-6.35L117.64-6.35 117.64-12.3Q116.89-11.85 116.41-11.15 115.94-10.45 115.94-9.3L115.94-9.3 115.94-6.05Q115.94-5.2 116.06-4.6 116.19-4 116.79-4ZM133.98 0L126.33 0 130.78-12.7 127.23-24.75 134.63-24.75 136.03-18.45 138.08-24.75 145.23-24.75 141.03-12.7 144.83 0 137.43 0 135.98-6.3 133.98 0ZM134.13-12.7L130.98-2.4 131.13-2.4 134.68-12.6 136.08-12.7 137.48-12.6 141.08-2.4 141.23-2.4 138.08-12.7Q138.08-12.75 138.28-13.43 138.48-14.1 138.81-15.03 139.13-15.95 139.41-16.88 139.68-17.8 139.83-18.3L139.83-18.3 141.48-23.65 141.33-23.65 137.53-12.85 136.08-12.75 134.68-12.85 130.88-23.65 130.73-23.65 132.38-18.3Q132.53-17.8 132.81-16.88 133.08-15.95 133.41-15.03 133.73-14.1 133.93-13.43 134.13-12.75 134.13-12.7L134.13-12.7Z" fill="#ffffff" data-fill-palette-color="secondary"></path></g></svg></g></svg></g></svg></g></svg></g><g><svg viewBox="0 0 121.45746349684704 121.38455443791075" height="121.38455443791075" width="121.45746349684704"><g><svg xmlns="http://www.w3.org/2000/svg" xmlns:xlink="http://www.w3.org/1999/xlink" version="1.1" x="0" y="0" viewBox="0 0.019209110900146736 32 31.980790889099854" enable-background="new 0 0 32 32" xml:space="preserve" height="121.38455443791075" width="121.45746349684704" class="icon-icon-0" data-fill-palette-color="accent" id="icon-0"><g fill="#00d1cd" data-fill-palette-color="accent"><path fill="#ffffff" d="M29.5 21H26.809C26.764 20.761 26.709 20.527 26.649 20.294L31.448 17.895A1.001 1.001 0 0 0 30.553 16.106L25.975 18.394C24.229 14.626 20.42 12 16 12 10.618 12 6.135 15.888 5.191 21H2.5A2.503 2.503 0 0 0 0 23.5C0 23.99 0.18 24.463 0.505 24.829L4 28.761V29.5C4 30.879 5.122 32 6.5 32H25.5C26.879 32 28 30.879 28 29.5V28.761L31.494 24.829C31.82 24.463 32 23.99 32 23.5 32 22.121 30.879 21 29.5 21M25.799 21H25.237L25.735 20.75C25.754 20.834 25.781 20.915 25.799 21M16 13C20.029 13 23.5 15.4 25.082 18.841L24.191 19.286C22.775 16.171 19.645 14 16 14 11.718 14 8.141 16.993 7.23 21H6.202C7.131 16.441 11.171 13 16 13M20.576 21C19.803 19.237 18.045 18 16 18S12.198 19.237 11.424 21H10.35C11.176 18.674 13.393 17 16 17A6.01 6.01 0 0 1 21.508 20.627L20.764 21zM16 20C15.117 20 14.33 20.391 13.78 21H12.556C13.25 19.811 14.526 19 16 19S18.75 19.811 19.443 21H18.218A2.98 2.98 0 0 0 16 20M16 16C12.835 16 10.158 18.112 9.295 21H8.263C9.155 17.556 12.28 15 16 15 19.246 15 22.043 16.948 23.295 19.734L22.402 20.18C21.314 17.723 18.855 16 16 16M26 28V29.5A0.5 0.5 0 0 1 25.5 30H6.5A0.5 0.5 0 0 1 6 29.5V28L2 23.5A0.5 0.5 0 0 1 2.5 23H29.5A0.5 0.5 0 0 1 30 23.5z" data-fill-palette-color="accent"></path><path fill="#ffffff" d="M7.977 11.712L7.985 11.73H7.987C8.07 11.89 8.236 12 8.43 12A0.503 0.503 0 0 0 8.914 11.372 0.03 0.03 0 0 0 8.914 11.352C8.539 10.47 8.895 9.502 9.333 8.46 9.806 7.334 10.313 6.084 9.755 4.813A0.49 0.49 0 0 0 8.842 5.165L8.845 5.174 8.85 5.186C9.254 6.095 8.863 7.027 8.422 8.079 7.956 9.188 7.44 10.417 7.959 11.67z" data-fill-palette-color="accent"></path><path fill="#ffffff" d="M20.154 11.566L20.162 11.584H20.164A0.501 0.501 0 0 0 21.093 11.227 0.02 0.02 0 0 0 21.091 11.207C20.718 10.325 21.073 9.357 21.511 8.315 21.984 7.189 22.491 5.939 21.933 4.668A0.49 0.49 0 0 0 21.019 5.014V5.02L21.023 5.029 21.027 5.041C21.431 5.95 21.041 6.882 20.599 7.934 20.134 9.043 19.619 10.273 20.138 11.526z" data-fill-palette-color="accent"></path><path fill="#ffffff" d="M15.019 7.212L15.027 7.23H15.029A0.501 0.501 0 0 0 15.974 6.998 0.5 0.5 0 0 0 15.956 6.873 0.03 0.03 0 0 0 15.956 6.853C15.581 5.971 15.937 5.003 16.375 3.961 16.848 2.835 17.355 1.585 16.797 0.314A0.49 0.49 0 0 0 15.883 0.665L15.886 0.674 15.89 0.686C16.294 1.595 15.903 2.527 15.462 3.579 14.996 4.688 14.48 5.918 15 7.171z" data-fill-palette-color="accent"></path></g></svg></g></svg></g></svg></g><defs></defs></svg><rect width="395.52" height="89.285647364454" fill="none" stroke="none" visibility="hidden"></rect></g></svg></g></svg>